<svg xmlns="http://www.w3.org/2000/svg" width="78" height="63"><g fill="#FFF"><circle cx="25.98" cy="55.5" r="7.5"/><circle cx="59.98" cy="55.5" r="7.5"/><path d="M64 0H11.06c-3.19 0-3 3.13-3 3.13V8h-4.6a3.47 3.47 0 100 6.94l28.1 1.84.19.04c-.76 3.2-8.94 3.8-8.94 3.8l-8.3.43H5.44a3.38 3.38 0 100 6.75l23.65 1.26c-.8 3.15-6.29 3.75-6.29 3.75l-14.75.76V49.2c0 3.19 2.56 3.81 2.56 3.81h2.1a13.5 13.5 0 0126.52 0h7.4a13.5 13.5 0 0126.53 0h1.7c2.94 0 3.13-4.06 3.13-4.06V33.69C78 14.8 64 0 64 0zM52 23.94v-15h10.06l5.75 15H52z"/></g></svg>