<svg xmlns="http://www.w3.org/2000/svg" width="78" height="62"><g fill="#FFF"><path d="M16.13 29.75a16.13 16.13 0 100 32.25 16.13 16.13 0 000-32.25zm0 23.43a7.3 7.3 0 01-7.31-7.3 7.3 7.3 0 1114.61 0 7.3 7.3 0 01-7.3 7.3zm44.72-7.3a8.06 8.06 0 00-8.06 8.06 8.06 8.06 0 1016.13 0 8.06 8.06 0 00-8.07-8.07zm0 13.12a5.06 5.06 0 110-10.13 5.06 5.06 0 010 10.13z"/><path d="M77.9 49.73L75.44 31.3c-.55-4.14-3.63-4.69-3.63-4.69L66 25.95V14h-3v5.83h-4v5.3l-11.81-1.38S37.44 3.69 36.63 1.87 33.5 0 33.5 0 11.12 2.38 8.75 3 5.31 6.17 5.31 6.17c-2.3 6.37-2.3 17.3-2.26 20.25a23.33 23.33 0 0113.08-3.98A23.44 23.44 0 0138.5 52.87h10.16a12.22 12.22 0 0124.39 0H75c3.64 0 2.9-3.14 2.9-3.14zm-54.82-29.9h-6.96V6.17h6.96v13.66zm10 0h-6.96V6.17h6.96v13.66zM53.02 36H49v-7h4.02v7zm7 0H56v-7h4.02v7zm7 0H63v-7h4.02v7z"/></g></svg>