<svg xmlns="http://www.w3.org/2000/svg" width="44" height="65"><g fill="#FFF"><path d="M37.91 30.44V41.3s.1 2.73-2.83 2.73c-3.06 0-3.12-2.73-3.12-2.73v-6.42c0-.24-.34-1.9-2.32-1.9-2.62 0-2.67 1.87-2.67 1.87v19.22s.03 1.86-2.46 1.86C22 55.94 22 53.96 22 53.96V40.02s0-2.95-3.8-2.95c-4.06 0-3.97 3.13-3.97 3.13v3.72s-.12 2.95-4.69 2.95-4.63-4.51-4.63-4.51V29.94C3.17 28.98 0 26.67 0 26.67V56s2.99 9 22 9 22-8.7 22-8.7V26.68a16.63 16.63 0 01-6.09 3.77z"/><path d="M22 0C1.69 0 0 19.88 0 19.88v3.06C8.44 29.19 22 29 22 29s13.56.19 22-6.06v-3.06S42.31 0 22 0zm0 25c-11.75 0-14.31-2.38-14.31-2.38C13.94 19.75 22 19.88 22 19.88s8.06-.12 14.31 2.75c0 0-2.56 2.38-14.31 2.38zm0-12.38c-9.56 0-17.69 2.94-17.69 2.94C8.88 2.62 22 3.06 22 3.06s13.13-.44 17.69 12.5c0 0-8.13-2.94-17.69-2.94z"/></g></svg>