<svg xmlns="http://www.w3.org/2000/svg" width="75" height="61"><path d="M5.04 58.95S5.04 61 6.9 61h27.02s2-.18 2-1.98V47.94H5.03v11zM73.87 8.02H60.4c-.62-2.3-2.07-3.9-3.77-3.9h-7.54v12.75h7.54c1.7 0 3.15-1.6 3.77-3.89h13.48c.58 0 1.05-1.1 1.05-2.48s-.47-2.48-1.05-2.48zM2.1 0C.17 0 0 2.04 0 2.04v15.81c0 2.94 2.9 3 2.9 3h9.01c1.94 0 1.6 1.34 1.6 1.34s-2.47 13-2.73 15.21C10.5 39.6 8.9 41 8.9 41s-2.14 1.2-3 1.67-.87 2.2-.87 2.2h30.89v-.73c0-1.47-6.47-3.14-9.08-3.4-2.6-.27-2.06-2-2.06-2l1.06-7.81h3L30 23.06h-3l.33-2.74 8.6-.13c5.81-.6 10.02-4.07 10.02-4.07V4.1C41.34.84 33.99 0 33.99 0H2.1zM36 4.94v.03a1 1 0 01-1 1H5.03a1 1 0 01-1-1v-.03a1 1 0 011-1H35a1 1 0 011 1z" fill="#FFF"/></svg>